<svg xmlns="http://www.w3.org/2000/svg" xmlns:xlink="http://www.w3.org/1999/xlink" preserveAspectRatio="xMidYMid" width="39" height="37" viewBox="0 0 39 37">
  <defs>
    <style>
      .cls-1 {
        fill: #2b81da;
        fill-rule: evenodd;
      }
    </style>
  </defs>
  <path d="M36.919,29.719 L23.128,29.719 L24.986,34.269 L25.837,34.269 C26.578,34.269 27.178,34.881 27.178,35.635 C27.178,36.388 26.578,37.000 25.837,37.000 L13.162,37.000 C12.422,37.000 11.822,36.388 11.822,35.635 C11.822,34.881 12.422,34.269 13.162,34.269 L14.014,34.269 L15.872,29.719 L2.081,29.719 C0.932,29.719 -0.000,28.770 -0.000,27.600 L-0.000,5.189 C-0.000,4.020 0.932,3.071 2.081,3.071 L5.051,3.071 C4.592,3.921 4.772,4.887 5.385,5.511 C4.262,5.511 3.368,6.437 3.368,7.562 C3.368,9.841 3.199,10.573 3.713,11.342 L3.713,24.352 C3.713,24.864 4.121,25.279 4.624,25.279 L34.376,25.279 C34.879,25.279 35.287,24.864 35.287,24.352 L35.287,12.352 C35.727,11.372 35.763,10.220 35.287,9.214 C35.287,6.962 35.311,7.298 31.733,7.298 L32.428,7.003 C33.833,6.407 34.030,4.488 32.279,3.071 L36.919,3.071 C38.068,3.071 39.000,4.020 39.000,5.189 L39.000,27.600 C39.000,28.770 38.068,29.719 36.919,29.719 ZM30.189,26.362 C29.651,26.362 29.214,26.807 29.214,27.355 C29.214,27.903 29.651,28.348 30.189,28.348 C30.728,28.348 31.165,27.903 31.165,27.355 C31.165,26.807 30.728,26.362 30.189,26.362 ZM33.358,26.362 C32.820,26.362 32.383,26.807 32.383,27.355 C32.383,27.903 32.820,28.348 33.358,28.348 C33.897,28.348 34.333,27.903 34.333,27.355 C34.333,26.807 33.896,26.362 33.358,26.362 ZM31.927,5.782 C27.982,7.456 28.189,6.836 29.555,10.171 C29.753,10.655 30.297,10.881 30.768,10.681 L33.465,9.538 C34.484,9.108 34.865,11.794 33.203,12.868 C30.178,14.821 30.013,14.642 26.001,13.211 L10.607,19.743 C7.579,21.025 5.748,16.386 8.717,15.127 L24.110,8.594 C25.163,6.339 25.700,4.492 28.082,3.938 L29.420,3.627 C31.359,3.172 32.916,5.362 31.927,5.782 ZM24.006,5.738 L23.335,7.169 C23.159,6.237 22.354,5.511 21.355,5.511 C22.058,4.676 22.104,3.831 21.691,3.071 L26.604,3.071 C25.476,3.625 24.559,4.555 24.006,5.738 ZM13.371,5.520 C15.816,5.520 17.499,8.194 16.244,10.498 L12.476,12.097 C11.093,11.697 10.072,10.413 10.072,8.879 C10.072,7.027 11.552,5.520 13.371,5.520 ZM22.075,8.023 L17.879,9.805 C18.454,6.853 16.228,4.196 13.371,4.196 C10.835,4.196 8.773,6.297 8.773,8.879 C8.773,10.512 9.600,11.949 10.849,12.787 C8.479,13.793 7.723,13.951 6.916,14.839 C5.628,13.527 5.826,13.670 7.340,12.129 C7.141,11.746 6.975,11.343 6.847,10.922 C4.300,10.922 4.668,11.241 4.668,7.562 C4.668,6.609 5.888,6.835 6.848,6.835 C6.975,6.413 7.141,6.011 7.340,5.628 C5.535,3.791 5.578,4.279 8.131,1.681 C8.794,1.009 9.501,2.047 10.179,2.738 C10.555,2.535 10.951,2.365 11.365,2.237 C11.365,-0.359 11.051,0.017 14.664,0.017 C15.597,0.017 15.376,1.261 15.376,2.237 C15.792,2.365 16.186,2.535 16.562,2.738 C18.365,0.903 17.870,0.925 20.439,3.542 C21.101,4.215 20.079,4.937 19.401,5.628 C19.600,6.010 19.768,6.413 19.895,6.834 C21.710,6.834 22.075,6.642 22.075,8.023 Z" class="cls-1"/>
</svg>
