<svg xmlns="http://www.w3.org/2000/svg" xmlns:xlink="http://www.w3.org/1999/xlink" preserveAspectRatio="xMidYMid" width="34" height="34" viewBox="0 0 34 34">
  <defs>
    <style>
      .cls-1 {
        fill: #2b81da;
        fill-rule: evenodd;
      }
    </style>
  </defs>
  <path d="M30.913,13.850 L30.429,13.850 L30.429,13.360 C30.429,5.993 24.404,-0.000 17.000,-0.000 C9.595,-0.000 3.571,5.993 3.571,13.360 L3.571,13.850 L3.087,13.850 C1.385,13.850 -0.000,15.228 -0.000,16.922 L-0.000,21.415 C-0.000,23.108 1.385,24.486 3.087,24.486 L4.809,24.486 C5.136,24.486 5.417,24.289 5.538,24.008 C7.576,28.044 10.542,30.712 10.738,30.886 C10.844,30.979 10.978,31.028 11.113,31.028 C11.114,31.028 11.114,31.028 11.115,31.028 C11.426,31.028 11.678,30.777 11.678,30.468 C11.678,30.394 11.664,30.324 11.638,30.260 C11.623,30.209 11.598,30.116 11.566,29.991 C12.953,31.723 14.441,32.747 15.571,33.335 C16.406,33.770 17.347,34.000 18.292,34.000 C19.237,34.000 20.178,33.770 21.013,33.335 C22.092,32.774 23.497,31.812 24.829,30.219 C27.347,29.306 29.266,27.142 29.821,24.486 L30.913,24.486 C32.615,24.486 34.000,23.108 34.000,21.415 L34.000,16.922 C34.000,15.228 32.615,13.850 30.913,13.850 ZM6.131,8.695 C7.951,4.514 12.137,1.581 17.000,1.581 C22.361,1.581 26.898,5.145 28.351,10.016 C27.717,9.409 27.024,9.063 26.414,8.938 C25.982,7.713 25.346,6.953 25.206,6.795 C24.940,6.440 22.463,3.321 17.388,3.321 C15.649,3.321 13.792,3.696 11.867,4.436 C10.493,4.963 8.013,6.197 6.131,8.695 ZM20.491,32.344 C19.817,32.695 19.056,32.880 18.292,32.880 C17.527,32.880 16.767,32.695 16.092,32.344 C14.709,31.624 12.733,30.180 11.171,27.394 C11.140,27.339 11.112,27.282 11.081,27.226 C10.873,25.092 11.022,22.389 12.726,20.966 C14.045,19.864 16.265,19.351 18.412,18.855 C21.100,18.234 23.864,17.594 25.387,15.784 C25.865,16.229 26.268,16.797 26.428,17.506 C26.974,19.924 26.274,21.995 26.264,22.025 C26.188,22.242 26.253,22.484 26.430,22.634 C26.534,22.723 26.664,22.768 26.795,22.768 C26.886,22.768 26.978,22.746 27.062,22.701 C27.068,22.698 27.081,22.690 27.099,22.681 C26.746,24.320 26.213,25.967 25.413,27.394 C25.174,27.821 24.924,28.212 24.669,28.578 C23.900,28.916 23.050,29.106 22.155,29.106 L21.333,29.106 C21.009,28.243 20.176,27.626 19.197,27.626 L17.025,27.626 C15.767,27.626 14.744,28.645 14.744,29.896 C14.744,31.148 15.767,32.166 17.025,32.166 L19.197,32.166 C20.176,32.166 21.009,31.549 21.333,30.687 L22.155,30.687 C22.398,30.687 22.637,30.675 22.874,30.654 C22.016,31.447 21.180,31.985 20.491,32.344 ZM26.919,26.902 C27.636,25.332 28.101,23.614 28.397,21.953 L28.397,22.896 C28.397,24.422 27.840,25.819 26.919,26.902 Z" class="cls-1"/>
</svg>
