<svg xmlns="http://www.w3.org/2000/svg" xmlns:xlink="http://www.w3.org/1999/xlink" preserveAspectRatio="xMidYMid" width="19" height="19" viewBox="0 0 19 19">
  <defs>
    <style>
      .cls-1 {
        fill: #c7c7c7;
        fill-rule: evenodd;
      }
    </style>
  </defs>
  <path d="M17.254,5.745 L16.936,5.745 C16.535,2.522 13.255,-0.000 9.282,-0.000 C5.304,-0.000 2.021,2.528 1.626,5.757 C0.720,5.819 -0.000,6.567 -0.000,7.487 L-0.000,12.086 C-0.000,13.047 0.783,13.828 1.745,13.828 L3.744,13.828 C4.706,13.828 5.489,13.047 5.488,12.086 L5.488,7.487 C5.488,6.526 4.705,5.745 3.743,5.745 L2.836,5.745 C3.245,3.179 5.977,1.187 9.282,1.187 C12.589,1.187 15.320,3.179 15.729,5.745 L15.257,5.745 C14.294,5.745 13.511,6.527 13.511,7.487 L13.511,12.086 C13.511,13.047 14.295,13.828 15.257,13.828 L15.653,13.828 C15.557,14.631 15.272,15.279 14.781,15.744 C13.729,16.740 12.082,16.662 12.033,16.664 L11.398,16.664 C11.389,15.711 10.611,14.939 9.655,14.939 L8.270,14.939 C7.308,14.939 6.525,15.721 6.525,16.681 L6.525,17.258 C6.525,18.219 7.308,19.000 8.270,19.000 L9.655,19.000 C10.408,19.000 11.045,18.519 11.289,17.850 L11.999,17.850 C12.011,17.851 12.071,17.854 12.166,17.854 C12.700,17.854 14.377,17.756 15.592,16.612 C16.329,15.920 16.752,14.984 16.858,13.828 L17.254,13.828 C18.216,13.828 18.999,13.047 19.000,12.086 L19.000,7.487 C19.000,6.526 18.216,5.745 17.254,5.745 Z" class="cls-1"/>
</svg>
