<svg xmlns="http://www.w3.org/2000/svg" xmlns:xlink="http://www.w3.org/1999/xlink" preserveAspectRatio="xMidYMid" width="34" height="32" viewBox="0 0 34 32">
  <defs>
    <style>
      .cls-1 {
        fill: #2b80d9;
        fill-rule: evenodd;
      }
    </style>
  </defs>
  <path d="M18.089,3.451 L33.992,6.974 L33.297,9.955 L17.395,6.431 L18.089,3.451 ZM28.194,1.446 L21.607,-0.013 L20.913,2.968 L27.500,4.427 L28.194,1.446 ZM13.877,9.896 L29.779,13.419 L30.473,10.438 L14.571,6.915 L13.877,9.896 ZM4.450,31.993 L5.974,30.493 L7.353,31.851 L15.283,28.462 L20.173,23.649 L16.646,20.177 L17.625,19.213 L22.742,20.347 L23.437,17.366 L16.650,15.863 L14.457,18.022 L12.072,15.673 L13.681,14.096 L26.260,16.883 L26.955,13.902 L12.710,10.746 L9.883,13.518 L8.482,12.139 L3.593,16.952 L0.151,24.761 L1.530,26.118 L0.007,27.618 L4.450,31.993 L4.450,31.993 Z" class="cls-1"/>
</svg>
