<svg xmlns="http://www.w3.org/2000/svg" xmlns:xlink="http://www.w3.org/1999/xlink" preserveAspectRatio="xMidYMid" width="48.03" height="55.03" viewBox="0 0 48.03 55.03">
  <defs>
    <style>
      .cls-1 {
        fill: #5f4934;
        fill-rule: evenodd;
      }
    </style>
  </defs>
  <path d="M46.111,41.889 C45.682,42.711 45.183,43.492 44.628,44.233 C43.436,45.831 41.971,47.229 40.288,48.342 C40.198,48.678 40.053,49.007 39.725,49.308 C39.288,49.965 38.612,50.412 37.847,50.721 C37.472,50.871 37.082,50.984 36.699,51.076 C36.430,51.142 36.170,51.193 35.921,51.240 C35.429,51.955 34.706,52.601 33.794,53.149 C32.160,54.132 29.892,54.824 27.350,55.015 C27.278,55.019 27.108,55.028 26.839,55.041 C24.151,55.169 21.658,54.721 19.799,53.895 C18.752,53.429 17.888,52.835 17.269,52.146 C15.074,51.445 13.265,50.488 10.784,48.081 C9.973,47.294 9.277,46.523 8.674,45.760 C7.916,44.801 7.308,43.850 6.814,42.882 C6.723,43.375 6.644,43.838 6.581,44.267 C6.510,44.762 6.457,45.210 6.432,45.600 C5.381,43.191 4.506,40.415 4.278,37.566 C4.184,36.392 4.200,35.205 4.360,34.026 C3.852,33.842 3.374,33.563 2.928,33.213 C2.536,32.903 2.169,32.543 1.838,32.122 C0.854,30.865 0.170,29.108 0.019,27.149 C-0.056,26.179 0.007,25.235 0.184,24.362 C0.365,23.478 0.662,22.665 1.054,21.966 C1.737,20.747 2.710,19.850 3.875,19.432 C4.072,16.972 4.653,14.594 5.654,12.405 C6.442,10.681 7.480,9.070 8.775,7.626 C9.115,7.244 9.461,6.890 9.811,6.544 C13.171,3.197 16.916,1.342 21.040,0.518 C24.527,-0.177 28.286,-0.141 32.313,0.346 L29.719,1.973 C33.090,2.040 35.624,2.394 38.539,3.115 L34.832,4.661 C38.028,5.555 40.116,6.947 41.668,8.430 C41.781,8.537 41.898,8.646 42.006,8.754 L38.632,8.765 L37.225,8.769 C37.292,8.811 37.358,8.855 37.426,8.898 C39.338,10.114 40.938,11.747 41.921,14.945 C42.335,15.742 42.610,16.653 42.707,17.689 C42.948,17.888 43.179,18.101 43.393,18.339 C44.430,19.491 45.141,21.112 45.281,22.930 C45.333,23.607 45.302,24.268 45.199,24.899 C45.604,25.510 45.981,26.139 46.305,26.800 C47.012,28.248 47.512,29.809 47.781,31.448 C47.859,31.916 47.923,32.388 47.960,32.868 C48.210,36.091 47.516,39.186 46.111,41.889 ZM18.534,49.625 L18.539,49.625 C18.555,49.836 18.624,50.044 18.737,50.247 C19.066,50.835 19.781,51.373 20.754,51.805 C22.300,52.494 24.412,52.863 26.722,52.752 L26.725,52.752 C26.777,52.749 26.931,52.739 27.174,52.720 C28.864,52.595 30.379,52.225 31.595,51.696 C31.524,51.683 31.450,51.673 31.381,51.657 C31.032,51.576 30.699,51.453 30.393,51.295 L30.042,51.320 C28.993,51.399 27.977,51.398 26.994,51.329 C24.207,51.137 21.692,50.387 19.516,49.217 C19.253,49.076 19.000,48.925 18.747,48.772 C18.597,49.042 18.519,49.316 18.533,49.586 L18.534,49.625 ZM5.412,20.815 C5.327,20.814 5.245,20.798 5.161,20.807 C4.672,20.842 4.216,21.016 3.803,21.293 C2.372,22.249 1.472,24.488 1.669,27.027 C1.861,29.513 3.047,31.563 4.563,32.334 C4.603,32.352 4.642,32.369 4.682,32.387 C5.126,32.590 5.595,32.692 6.077,32.656 C6.508,32.623 6.912,32.478 7.286,32.258 C7.454,32.157 7.616,32.039 7.771,31.906 C7.874,31.818 7.976,31.734 8.070,31.631 L8.071,31.624 L8.074,31.616 L8.075,31.610 L8.077,31.602 L8.078,31.594 L8.101,31.495 L8.103,31.488 L8.105,31.480 L8.106,31.472 L8.108,31.465 L8.110,31.457 L8.112,31.450 L8.113,31.441 L8.116,31.435 L8.119,31.426 L8.120,31.419 L8.122,31.410 L8.123,31.404 L8.125,31.396 L8.128,31.388 L8.129,31.380 L8.131,31.374 L8.148,31.305 L8.150,31.297 L8.151,31.289 L8.153,31.283 L8.157,31.274 L8.158,31.268 C8.167,31.229 8.177,31.191 8.187,31.154 L8.189,31.146 L8.108,30.102 L7.840,26.616 L7.457,21.659 C7.316,21.538 7.169,21.433 7.021,21.335 C6.693,21.119 6.347,20.972 5.988,20.887 C5.798,20.842 5.606,20.820 5.412,20.815 ZM37.180,10.674 C36.572,10.085 35.889,9.607 35.167,9.148 C34.827,8.931 34.482,8.717 34.126,8.503 C33.495,8.136 32.666,7.830 31.718,7.582 L31.712,7.579 C32.940,7.310 34.874,6.980 37.089,7.187 C35.016,6.033 32.596,4.997 28.518,5.371 C29.660,4.840 30.541,4.542 31.704,4.136 C32.300,3.974 32.952,3.804 33.765,3.569 C30.931,3.161 27.910,2.842 24.573,3.326 C25.308,2.627 26.654,1.986 27.526,1.648 C26.735,1.735 25.967,1.849 25.218,1.988 C24.538,1.979 23.881,2.005 23.236,2.048 C17.618,2.421 13.304,4.694 10.330,7.986 C9.180,9.258 8.233,10.680 7.485,12.202 C6.625,13.954 6.031,15.832 5.703,17.769 C6.396,15.935 7.678,14.127 8.992,12.902 C9.415,12.508 9.840,12.159 10.247,11.907 C8.140,14.432 7.385,16.652 7.234,18.976 C7.222,19.174 7.205,19.369 7.201,19.567 C7.169,19.548 7.133,19.534 7.099,19.517 C6.979,19.450 6.853,19.398 6.723,19.357 C6.439,19.266 6.148,19.223 5.899,19.209 C6.169,19.244 6.435,19.306 6.698,19.390 C6.774,19.413 6.850,19.432 6.924,19.460 C6.984,19.483 7.039,19.519 7.096,19.542 C7.575,19.742 8.030,20.009 8.444,20.354 C8.512,20.402 8.569,20.462 8.627,20.519 C8.658,20.398 8.684,20.278 8.716,20.160 C8.988,19.167 9.367,18.207 9.829,17.317 C9.583,18.909 9.439,20.408 9.414,21.776 C9.388,23.172 9.496,24.418 9.757,25.480 C9.880,25.986 10.030,26.462 10.230,26.876 C10.131,27.120 10.029,27.472 9.948,27.846 C10.301,27.333 10.693,26.829 11.121,26.335 C9.446,31.438 9.211,34.918 10.211,38.800 C10.334,39.278 10.469,39.762 10.630,40.259 C10.540,40.131 10.466,40.009 10.379,39.884 C9.336,38.352 8.675,36.922 8.337,35.574 C8.175,34.927 8.084,34.300 8.062,33.690 C8.013,33.717 7.970,33.753 7.920,33.779 C7.909,33.785 7.901,33.792 7.890,33.798 C7.547,33.974 7.183,34.087 6.809,34.171 C6.420,36.374 6.607,38.425 7.317,40.371 C8.069,42.429 9.395,44.377 11.231,46.279 C12.281,47.362 13.484,48.433 14.849,49.500 C14.388,48.688 13.976,47.712 13.639,46.731 C13.346,45.878 13.106,45.018 12.947,44.264 C14.053,45.504 15.167,46.469 16.298,47.232 C16.461,47.342 16.621,47.457 16.784,47.558 C16.808,47.520 16.827,47.481 16.850,47.444 C16.794,47.397 16.740,47.352 16.684,47.305 C15.336,46.185 14.186,44.884 13.265,43.449 C12.676,42.536 12.182,41.568 11.781,40.563 C11.147,38.978 10.750,37.301 10.619,35.584 C10.388,32.618 10.943,29.535 12.396,26.626 C11.411,22.726 11.336,19.434 12.510,16.906 C13.054,15.740 13.839,14.768 14.869,13.988 C14.865,13.986 14.854,13.986 14.849,13.986 C17.334,11.736 23.592,10.114 27.032,10.808 C25.511,10.963 23.975,11.313 22.609,11.877 C23.505,11.905 24.422,12.015 25.308,12.215 C26.106,12.395 26.889,12.650 27.616,12.971 C29.258,11.806 31.360,11.100 33.440,10.942 C33.836,10.913 34.233,10.911 34.629,10.922 C35.517,10.946 36.401,11.066 37.240,11.306 C37.601,11.407 37.949,11.535 38.290,11.679 C37.940,11.302 37.570,10.973 37.180,10.674 ZM42.933,20.551 L43.064,22.259 C43.253,22.448 43.427,22.652 43.608,22.851 C43.517,22.009 43.282,21.225 42.933,20.551 ZM46.018,33.012 C45.861,30.962 45.280,29.039 44.381,27.309 C44.071,26.713 43.720,26.144 43.336,25.597 C43.305,25.554 43.276,25.506 43.242,25.462 C42.855,24.924 42.436,24.410 41.983,23.925 C41.917,23.855 41.845,23.788 41.778,23.719 C41.674,23.613 41.571,23.507 41.464,23.403 C41.368,23.309 41.279,23.208 41.180,23.117 L40.982,20.582 L40.979,20.529 L40.815,18.401 L40.781,17.964 C40.742,17.457 40.632,17.005 40.491,16.578 C40.002,15.087 38.951,14.073 37.619,13.482 C34.968,12.305 31.261,12.792 28.829,14.479 C29.254,14.865 29.677,15.339 30.106,15.919 C30.386,16.296 30.668,16.713 30.954,17.181 C30.494,16.843 30.049,16.544 29.620,16.273 C28.966,15.855 28.361,15.508 27.866,15.262 C27.865,15.263 27.865,15.264 27.864,15.264 C26.151,14.178 23.598,13.644 21.419,13.806 C13.928,14.366 12.446,19.041 14.331,26.327 C14.790,26.081 15.335,25.840 15.998,25.603 C14.897,26.554 14.076,27.596 13.533,28.840 C11.118,35.109 13.137,42.012 18.166,46.032 C18.475,46.279 18.796,46.517 19.127,46.741 C19.474,46.975 19.837,47.194 20.207,47.400 C20.286,47.445 20.365,47.488 20.445,47.530 C21.015,47.836 21.611,48.111 22.235,48.351 C23.992,49.027 25.954,49.418 28.090,49.453 C28.679,49.463 29.278,49.457 29.895,49.412 L30.897,49.336 C30.948,49.380 31.013,49.412 31.068,49.450 C31.558,49.792 32.236,49.953 32.974,49.823 L34.189,49.608 L35.355,49.402 L35.440,49.387 C35.444,49.386 35.448,49.386 35.453,49.383 C35.825,49.319 36.239,49.232 36.633,49.117 C37.102,48.977 37.539,48.789 37.845,48.530 C38.054,48.235 38.268,47.896 38.478,47.523 C38.512,47.343 38.552,47.162 38.711,47.067 C38.719,47.062 38.727,47.057 38.734,47.052 C39.024,46.500 39.295,45.919 39.515,45.387 C39.544,45.811 39.537,46.188 39.512,46.542 C43.795,43.564 46.443,38.507 46.018,33.012 ZM42.216,33.052 C41.980,34.852 41.409,36.526 40.560,37.971 C40.081,38.784 39.515,39.525 38.865,40.173 C38.571,40.463 38.256,40.727 37.931,40.977 C37.217,41.533 36.429,41.986 35.572,42.321 C35.507,42.353 35.444,42.389 35.373,42.413 C35.267,42.450 35.160,42.477 35.054,42.511 C34.957,42.540 34.861,42.571 34.764,42.599 C34.608,42.644 34.449,42.682 34.292,42.720 C34.132,42.757 33.974,42.792 33.813,42.822 C33.779,42.828 33.744,42.838 33.710,42.844 C33.605,42.862 33.501,42.871 33.396,42.886 C33.236,42.908 33.075,42.932 32.914,42.948 C32.615,42.974 32.313,42.995 32.003,42.995 C31.699,42.996 31.399,42.989 31.101,42.977 C31.009,42.974 30.918,42.970 30.827,42.964 C30.615,42.954 30.406,42.938 30.198,42.919 C30.099,42.911 29.999,42.903 29.898,42.891 C29.673,42.867 29.451,42.837 29.230,42.803 C29.162,42.792 29.095,42.786 29.030,42.774 C28.758,42.727 28.492,42.672 28.230,42.607 C28.134,42.584 28.041,42.558 27.947,42.531 C27.770,42.483 27.595,42.432 27.423,42.375 C27.323,42.341 27.222,42.308 27.124,42.272 C26.939,42.204 26.759,42.131 26.580,42.050 C26.509,42.020 26.438,41.993 26.368,41.958 C26.351,41.951 26.333,41.945 26.315,41.936 C26.077,41.821 25.846,41.695 25.623,41.558 C25.608,41.549 25.595,41.541 25.581,41.533 C25.348,41.386 25.121,41.227 24.901,41.056 C24.890,41.047 24.877,41.040 24.866,41.033 C24.846,41.017 24.832,40.999 24.813,40.984 C24.608,40.819 24.413,40.643 24.226,40.456 C24.195,40.426 24.162,40.393 24.133,40.363 C23.946,40.168 23.769,39.961 23.601,39.743 C23.580,39.715 23.557,39.689 23.535,39.660 C23.352,39.414 23.181,39.154 23.023,38.877 C22.992,38.823 22.966,38.763 22.937,38.708 C22.822,38.495 22.714,38.274 22.614,38.043 C22.560,37.918 22.511,37.786 22.462,37.654 C22.422,37.550 22.378,37.452 22.340,37.344 L22.345,37.342 C22.332,37.301 22.317,37.259 22.307,37.216 C22.306,37.212 22.306,37.207 22.306,37.202 C22.212,36.913 22.129,36.606 22.056,36.289 C22.044,36.247 22.026,36.207 22.017,36.164 C22.000,36.086 21.988,36.000 21.972,35.921 C21.944,35.783 21.918,35.646 21.895,35.503 C21.849,35.222 21.809,34.933 21.779,34.627 C21.777,34.613 21.778,34.599 21.776,34.586 C21.728,34.096 21.697,33.585 21.692,33.041 C20.593,33.353 20.139,34.171 20.525,35.940 C19.017,33.946 19.274,31.321 23.216,31.301 C23.255,31.299 23.295,31.289 23.335,31.289 L34.321,31.246 C34.969,30.531 35.137,28.872 34.350,27.626 C35.481,28.584 36.239,29.793 36.652,31.236 L39.056,31.226 L39.214,31.226 C39.188,31.222 39.165,31.210 39.136,31.210 C39.545,31.219 39.921,31.212 40.283,31.205 C40.485,31.201 40.690,31.197 40.874,31.194 C41.098,31.192 41.308,31.180 41.501,31.160 C41.662,31.143 41.812,31.119 41.948,31.087 C42.837,30.887 43.180,30.368 42.588,29.344 C42.421,29.053 42.173,28.720 41.845,28.343 C41.833,28.328 41.821,28.314 41.808,28.300 C41.763,28.248 41.723,28.200 41.673,28.145 C41.731,28.181 41.782,28.221 41.838,28.258 C42.228,28.517 42.581,28.812 42.885,29.129 C43.032,29.280 43.168,29.436 43.290,29.594 C43.403,29.741 43.507,29.891 43.596,30.040 C43.988,30.698 44.125,31.355 43.912,31.863 C43.804,32.122 43.614,32.343 43.309,32.506 C43.037,32.650 42.675,32.744 42.223,32.783 C42.226,32.871 42.228,32.962 42.216,33.052 ZM31.648,41.370 C31.735,41.369 31.823,41.367 31.917,41.366 C31.969,41.363 32.026,41.363 32.081,41.362 C32.403,41.356 32.749,41.345 33.074,41.312 C33.111,41.309 33.149,41.305 33.187,41.299 C33.293,41.286 33.395,41.271 33.492,41.252 C33.504,41.250 33.514,41.248 33.527,41.246 C34.001,41.153 34.303,41.087 34.485,40.983 C34.743,40.838 34.756,40.617 34.615,40.132 C34.525,39.825 34.423,39.554 34.312,39.306 C33.772,38.092 32.914,37.539 31.229,37.441 C31.219,37.436 31.210,37.429 31.201,37.427 L31.068,37.427 C30.858,37.417 30.618,37.424 30.382,37.428 L30.030,37.429 L29.228,37.433 C29.059,37.547 29.493,38.115 29.924,38.621 C30.140,38.875 30.352,39.113 30.477,39.257 C30.071,39.004 29.377,38.611 28.641,38.251 C28.259,38.065 27.873,37.893 27.501,37.749 C27.114,37.601 26.758,37.492 26.457,37.443 L26.004,37.446 L24.164,37.454 L24.151,37.454 C25.521,40.601 28.407,41.439 31.648,41.370 ZM23.342,32.918 C23.344,33.304 23.362,33.668 23.386,34.020 C23.393,34.104 23.398,34.189 23.405,34.270 C23.434,34.605 23.471,34.928 23.522,35.234 C23.523,35.240 23.524,35.244 23.524,35.249 C23.533,35.302 23.544,35.352 23.553,35.403 C23.579,35.546 23.603,35.691 23.632,35.827 L23.644,35.827 L25.331,35.820 L31.547,35.795 L34.071,35.784 L34.701,34.881 L34.984,35.781 L35.887,35.778 C36.937,35.772 37.871,35.264 38.452,34.486 C38.798,34.020 39.019,33.462 39.063,32.855 L23.342,32.918 ZM34.276,22.721 L33.981,18.905 C33.907,17.932 34.653,17.077 35.641,17.001 C36.036,16.972 36.408,17.077 36.722,17.270 C37.194,17.558 37.528,18.051 37.574,18.634 L37.575,18.646 L37.576,18.656 L37.785,21.386 L37.867,22.452 C37.870,22.473 37.865,22.493 37.866,22.515 C37.888,23.035 37.675,23.512 37.319,23.851 C37.027,24.130 36.645,24.322 36.209,24.354 C36.031,24.367 35.862,24.347 35.695,24.311 C34.938,24.149 34.338,23.519 34.276,22.721 ZM36.372,21.775 L36.743,21.748 C36.919,21.734 37.053,21.582 37.038,21.408 C37.027,21.235 36.871,21.104 36.694,21.115 L36.324,21.145 C36.145,21.156 36.012,21.310 36.026,21.484 C36.040,21.658 36.195,21.788 36.372,21.775 ZM35.916,20.061 C35.938,20.337 36.182,20.544 36.462,20.522 C36.739,20.501 36.951,20.260 36.930,19.987 L36.844,18.881 C36.822,18.606 36.577,18.398 36.299,18.421 C36.019,18.441 35.810,18.682 35.831,18.956 L35.916,20.061 ZM35.781,27.008 L34.626,27.094 C34.389,27.113 34.083,26.914 33.946,26.657 C33.808,26.397 33.774,25.739 34.010,25.720 L34.945,25.651 C35.141,25.635 35.620,26.060 35.854,26.353 C35.899,26.410 35.938,26.464 35.961,26.506 C36.071,26.711 36.037,26.892 35.900,26.968 C35.865,26.987 35.829,27.005 35.781,27.008 ZM34.167,15.131 C33.687,15.191 33.219,15.239 32.804,15.390 C32.414,15.531 32.227,15.271 32.287,15.001 C32.314,14.884 32.384,14.764 32.516,14.676 C34.252,13.498 36.964,14.347 38.034,16.076 C38.136,16.240 38.220,16.412 38.290,16.590 C38.397,16.863 38.467,17.150 38.487,17.451 C38.350,17.165 38.165,16.915 37.961,16.681 C36.961,15.527 35.280,14.990 34.167,15.131 ZM33.530,26.686 C33.580,26.954 33.428,27.185 33.191,27.201 L32.036,27.290 C31.799,27.306 31.564,27.103 31.513,26.838 C31.464,26.572 31.645,25.898 31.882,25.881 L32.814,25.810 C33.051,25.794 33.480,26.421 33.530,26.686 ZM26.961,20.349 C25.910,19.264 24.258,18.431 22.150,18.431 C20.744,18.431 19.442,18.944 18.376,19.447 C19.415,18.121 21.078,17.263 22.952,17.263 C25.007,17.263 26.856,18.269 27.812,19.849 C28.429,20.870 27.314,20.713 26.961,20.349 ZM20.288,23.925 C20.390,23.535 27.506,21.763 27.633,23.391 C27.668,23.869 27.302,24.284 26.816,24.318 L21.227,24.729 C20.742,24.763 20.320,24.402 20.288,23.925 ZM21.903,28.416 C19.818,28.654 18.212,30.396 17.997,33.754 C17.316,31.208 17.589,27.631 21.903,28.416 ZM6.585,23.630 C6.695,23.804 6.733,24.050 6.666,24.329 C6.639,24.530 6.598,24.806 6.562,25.115 C6.489,25.739 6.435,26.520 6.551,27.233 C6.726,28.295 7.238,29.176 7.042,29.189 C6.949,29.197 6.670,29.012 6.342,28.705 C6.029,28.410 5.673,28.003 5.378,27.534 C5.335,27.465 5.290,27.399 5.251,27.329 C4.743,26.429 4.160,24.520 5.159,23.737 C5.278,23.643 5.409,23.568 5.542,23.509 C5.551,23.506 5.559,23.497 5.568,23.494 C5.689,23.440 5.812,23.415 5.932,23.399 C5.953,23.396 5.977,23.384 5.998,23.382 C6.277,23.360 6.474,23.460 6.585,23.630 ZM41.438,49.202 C42.325,48.584 43.151,47.889 43.913,47.134 L43.591,48.440 C43.112,50.397 41.259,51.658 39.281,51.512 C39.863,51.165 40.386,50.733 40.784,50.177 C41.071,49.887 41.283,49.564 41.438,49.202 Z" class="cls-1"/>
</svg>
