<svg xmlns="http://www.w3.org/2000/svg" xmlns:xlink="http://www.w3.org/1999/xlink" preserveAspectRatio="xMidYMid" width="126.31" height="12.19" viewBox="0 0 126.31 12.19">
  <defs>
    <style>
      .cls-1 {
        fill: #5f4934;
        fill-rule: evenodd;
      }
    </style>
  </defs>
  <path d="M125.993,2.453 L122.917,6.902 L122.917,10.457 C122.917,10.915 122.783,11.290 122.514,11.582 C122.244,11.874 121.864,12.020 121.371,12.020 C120.878,12.020 120.497,11.874 120.228,11.582 C119.959,11.290 119.825,10.915 119.825,10.457 L119.825,6.971 L116.749,2.642 C116.508,2.345 116.405,1.964 116.440,1.500 C116.474,1.036 116.680,0.684 117.058,0.444 C117.528,0.181 117.946,0.112 118.313,0.238 C118.679,0.364 119.005,0.644 119.292,1.079 L121.491,4.308 L123.570,1.148 C124.212,0.152 124.939,-0.089 125.752,0.427 C126.096,0.644 126.282,0.953 126.311,1.354 C126.339,1.755 126.233,2.121 125.993,2.453 ZM114.686,9.272 C115.156,9.272 115.525,9.392 115.794,9.633 C116.064,9.873 116.198,10.211 116.198,10.646 C116.198,11.058 116.064,11.390 115.794,11.642 C115.525,11.894 115.156,12.020 114.686,12.020 L109.068,12.020 C108.575,12.020 108.194,11.874 107.925,11.582 C107.656,11.290 107.521,10.915 107.521,10.457 L107.521,1.732 C107.521,1.274 107.656,0.899 107.925,0.607 C108.194,0.315 108.575,0.169 109.068,0.169 L114.532,0.169 C115.001,0.169 115.371,0.289 115.640,0.530 C115.909,0.770 116.044,1.108 116.044,1.543 C116.044,1.955 115.909,2.287 115.640,2.539 C115.371,2.791 115.001,2.917 114.532,2.917 L110.614,2.917 L110.614,4.635 L113.655,4.635 C114.125,4.635 114.494,4.755 114.763,4.995 C115.033,5.236 115.167,5.574 115.167,6.009 C115.167,6.421 115.033,6.753 114.763,7.005 C114.494,7.257 114.125,7.383 113.655,7.383 L110.614,7.383 L110.614,9.272 L114.686,9.272 ZM106.412,10.500 C106.418,10.929 106.243,11.304 105.888,11.625 C105.476,11.957 105.069,12.083 104.668,12.003 C104.267,11.923 103.895,11.671 103.551,11.247 L99.943,6.764 L99.943,10.457 C99.943,10.915 99.808,11.290 99.539,11.582 C99.270,11.874 98.889,12.020 98.397,12.020 C97.904,12.020 97.523,11.874 97.254,11.582 C96.985,11.290 96.850,10.915 96.850,10.457 L96.850,1.732 C96.850,1.274 96.985,0.899 97.254,0.607 C97.523,0.315 97.904,0.169 98.397,0.169 C98.889,0.169 99.270,0.315 99.539,0.607 C99.808,0.899 99.943,1.274 99.943,1.732 L99.943,5.408 L103.173,1.045 C103.505,0.587 103.878,0.312 104.290,0.221 C104.703,0.129 105.103,0.232 105.493,0.530 C105.825,0.816 105.985,1.168 105.974,1.586 C105.963,2.004 105.796,2.413 105.476,2.814 L102.967,5.888 L105.888,9.272 C106.232,9.661 106.406,10.071 106.412,10.500 ZM93.207,12.020 C92.691,12.020 92.244,11.768 91.866,11.264 L87.382,5.614 L87.382,10.457 C87.382,11.499 86.901,12.020 85.939,12.020 C84.999,12.020 84.530,11.499 84.530,10.457 L84.530,1.732 C84.530,0.690 84.999,0.169 85.939,0.169 C86.500,0.169 86.987,0.444 87.399,0.994 L91.798,6.833 L91.798,1.732 C91.798,1.274 91.912,0.899 92.141,0.607 C92.370,0.315 92.731,0.169 93.224,0.169 C94.174,0.169 94.650,0.690 94.650,1.732 L94.650,10.457 C94.650,10.927 94.521,11.304 94.263,11.591 C94.006,11.877 93.653,12.020 93.207,12.020 ZM77.037,12.192 C75.193,12.192 73.764,11.622 72.750,10.483 C71.736,9.344 71.229,7.881 71.229,6.095 C71.229,4.308 71.736,2.846 72.750,1.706 C73.764,0.567 75.193,-0.003 77.037,-0.003 C78.881,-0.003 80.310,0.567 81.324,1.706 C82.338,2.846 82.845,4.308 82.845,6.095 C82.845,7.881 82.338,9.344 81.324,10.483 C80.310,11.622 78.881,12.192 77.037,12.192 ZM78.944,3.673 C78.521,3.055 77.885,2.745 77.037,2.745 C76.189,2.745 75.554,3.055 75.130,3.673 C74.706,4.291 74.494,5.098 74.494,6.095 C74.494,7.091 74.706,7.898 75.130,8.516 C75.554,9.135 76.189,9.444 77.037,9.444 C77.885,9.444 78.521,9.135 78.944,8.516 C79.368,7.898 79.580,7.091 79.580,6.095 C79.580,5.098 79.368,4.291 78.944,3.673 ZM67.998,12.020 C67.506,12.020 67.125,11.874 66.856,11.582 C66.586,11.290 66.452,10.915 66.452,10.457 L66.452,5.648 L65.146,7.915 C64.814,8.488 64.338,8.774 63.720,8.774 C63.158,8.774 62.694,8.493 62.328,7.932 L60.953,5.820 L60.953,10.457 C60.953,11.499 60.472,12.020 59.510,12.020 C59.006,12.020 58.639,11.874 58.410,11.582 C58.181,11.290 58.067,10.915 58.067,10.457 L58.067,1.732 C58.067,1.285 58.187,0.913 58.428,0.616 C58.668,0.318 59.029,0.169 59.510,0.169 C60.163,0.169 60.673,0.473 61.039,1.079 L63.874,5.528 L66.641,1.079 C66.996,0.473 67.483,0.169 68.101,0.169 C68.571,0.169 68.929,0.309 69.175,0.590 C69.421,0.870 69.544,1.251 69.544,1.732 L69.544,10.457 C69.544,10.927 69.413,11.304 69.149,11.591 C68.886,11.877 68.502,12.020 67.998,12.020 ZM49.681,6.902 L49.681,10.457 C49.681,10.915 49.546,11.290 49.277,11.582 C49.008,11.874 48.627,12.020 48.134,12.020 C47.642,12.020 47.261,11.874 46.992,11.582 C46.723,11.290 46.588,10.915 46.588,10.457 L46.588,6.971 L43.512,2.642 C43.272,2.345 43.169,1.964 43.203,1.500 C43.237,1.036 43.444,0.684 43.822,0.444 C44.291,0.181 44.709,0.112 45.076,0.238 C45.442,0.364 45.769,0.644 46.055,1.079 L48.255,4.308 L50.334,1.148 C50.975,0.152 51.702,-0.089 52.516,0.427 C52.859,0.644 53.046,0.953 53.074,1.354 C53.103,1.755 52.997,2.121 52.756,2.453 L49.681,6.902 ZM43.125,10.500 C43.131,10.929 42.956,11.304 42.601,11.625 C42.188,11.957 41.782,12.083 41.381,12.003 C40.980,11.923 40.608,11.671 40.264,11.247 L36.656,6.764 L36.656,10.457 C36.656,10.915 36.521,11.290 36.252,11.582 C35.983,11.874 35.602,12.020 35.109,12.020 C34.617,12.020 34.236,11.874 33.967,11.582 C33.698,11.290 33.563,10.915 33.563,10.457 L33.563,1.732 C33.563,1.274 33.698,0.899 33.967,0.607 C34.236,0.315 34.617,0.169 35.109,0.169 C35.602,0.169 35.983,0.315 36.252,0.607 C36.521,0.899 36.656,1.274 36.656,1.732 L36.656,5.408 L39.886,1.045 C40.218,0.587 40.590,0.312 41.003,0.221 C41.415,0.129 41.816,0.232 42.206,0.530 C42.538,0.816 42.698,1.168 42.687,1.586 C42.675,2.004 42.509,2.413 42.188,2.814 L39.680,5.888 L42.601,9.272 C42.944,9.661 43.119,10.071 43.125,10.500 ZM29.919,12.020 C29.404,12.020 28.957,11.768 28.579,11.264 L24.094,5.614 L24.094,10.457 C24.094,11.499 23.613,12.020 22.651,12.020 C21.712,12.020 21.242,11.499 21.242,10.457 L21.242,1.732 C21.242,0.690 21.712,0.169 22.651,0.169 C23.212,0.169 23.699,0.444 24.112,0.994 L28.510,6.833 L28.510,1.732 C28.510,1.274 28.625,0.899 28.854,0.607 C29.083,0.315 29.444,0.169 29.936,0.169 C30.887,0.169 31.363,0.690 31.363,1.732 L31.363,10.457 C31.363,10.927 31.234,11.304 30.976,11.591 C30.718,11.877 30.366,12.020 29.919,12.020 ZM14.265,12.192 C12.581,12.192 11.359,11.734 10.597,10.818 C9.835,9.902 9.454,8.688 9.454,7.177 L9.454,1.732 C9.454,1.274 9.586,0.899 9.849,0.607 C10.113,0.315 10.491,0.169 10.984,0.169 C11.476,0.169 11.860,0.315 12.135,0.607 C12.410,0.899 12.547,1.274 12.547,1.732 L12.547,7.400 C12.547,8.018 12.699,8.513 13.002,8.885 C13.306,9.258 13.750,9.444 14.334,9.444 C14.918,9.444 15.362,9.258 15.666,8.885 C15.969,8.513 16.121,8.018 16.121,7.400 L16.121,1.732 C16.121,1.274 16.247,0.899 16.499,0.607 C16.751,0.315 17.117,0.169 17.599,0.169 C18.080,0.169 18.441,0.312 18.681,0.599 C18.922,0.885 19.042,1.263 19.042,1.732 L19.042,7.177 C19.042,8.688 18.667,9.902 17.916,10.818 C17.166,11.734 15.949,12.192 14.265,12.192 ZM6.687,2.917 L3.096,2.917 L3.096,4.635 L5.880,4.635 C6.349,4.635 6.719,4.755 6.988,4.995 C7.257,5.236 7.392,5.574 7.392,6.009 C7.392,6.421 7.257,6.753 6.988,7.005 C6.719,7.257 6.349,7.383 5.880,7.383 L3.096,7.383 L3.096,10.457 C3.096,10.915 2.962,11.290 2.692,11.582 C2.423,11.874 2.042,12.020 1.550,12.020 C1.057,12.020 0.676,11.874 0.407,11.582 C0.138,11.290 0.003,10.915 0.003,10.457 L0.003,1.732 C0.003,1.274 0.138,0.899 0.407,0.607 C0.676,0.315 1.057,0.169 1.550,0.169 L6.687,0.169 C7.157,0.169 7.526,0.289 7.796,0.530 C8.065,0.770 8.199,1.108 8.199,1.543 C8.199,1.955 8.065,2.287 7.796,2.539 C7.526,2.791 7.157,2.917 6.687,2.917 Z" class="cls-1"/>
</svg>
