<svg xmlns="http://www.w3.org/2000/svg" xmlns:xlink="http://www.w3.org/1999/xlink" preserveAspectRatio="xMidYMid" width="36" height="37" viewBox="0 0 36 37">
  <defs>
    <style>
      .cls-1 {
        fill: #2b81da;
        fill-rule: evenodd;
      }
    </style>
  </defs>
  <path d="M35.999,24.162 C35.999,24.162 29.691,25.435 27.824,25.812 C28.777,27.217 29.763,28.673 29.763,28.673 C30.233,29.373 30.463,30.167 30.463,30.935 C30.463,32.090 29.955,33.194 28.990,33.865 C27.386,34.983 25.117,34.476 23.931,32.733 C23.931,32.733 22.968,31.312 22.028,29.923 C21.994,29.939 21.961,29.957 21.927,29.973 C20.843,31.714 17.539,37.008 17.539,37.008 L16.465,31.353 C16.146,31.373 15.829,31.402 15.505,31.402 C6.956,31.402 0.003,24.356 0.003,15.693 C0.003,7.031 6.956,-0.013 15.505,-0.013 C24.048,-0.013 31.005,7.031 31.005,15.693 C31.005,17.380 30.734,19.004 30.245,20.529 L35.999,24.162 ZM23.540,9.138 C22.870,8.804 21.054,6.950 19.554,6.108 C18.627,5.588 18.148,3.591 17.916,2.138 C17.132,1.995 16.328,1.908 15.503,1.908 C12.392,1.908 9.531,2.984 7.236,4.773 C7.914,5.776 9.004,7.630 8.409,8.470 C7.583,9.648 5.254,9.648 5.254,10.832 C5.254,12.005 5.091,13.184 5.254,13.691 C5.418,14.197 6.753,14.537 5.752,15.378 C5.076,15.942 3.198,16.970 2.045,17.581 C2.261,19.166 2.750,20.661 3.451,22.027 C3.740,21.305 4.846,18.690 5.745,18.510 C6.781,18.308 7.659,18.015 8.664,19.301 C9.668,20.578 11.095,21.011 11.844,20.970 C12.595,20.930 11.607,23.648 9.262,24.115 C7.021,24.560 10.287,27.461 8.394,27.427 C10.463,28.722 12.896,29.472 15.503,29.472 C15.705,29.472 15.903,29.451 16.103,29.442 L12.896,12.554 L15.133,10.985 L23.317,16.153 C23.735,15.271 24.753,14.355 24.871,13.522 C25.034,12.343 24.208,9.474 23.540,9.138 ZM27.523,9.263 C26.948,9.539 26.171,9.982 25.870,10.486 C25.368,11.332 26.042,13.941 26.867,14.530 C28.075,15.410 28.643,16.547 28.936,17.726 C29.034,17.061 29.101,16.385 29.101,15.693 C29.101,13.371 28.526,11.185 27.523,9.263 Z" class="cls-1"/>
</svg>
