<svg xmlns="http://www.w3.org/2000/svg" xmlns:xlink="http://www.w3.org/1999/xlink" preserveAspectRatio="xMidYMid" width="20" height="20" viewBox="0 0 20 20">
  <defs>
    <style>
      .cls-1 {
        fill: #c7c7c7;
        fill-rule: evenodd;
      }
    </style>
  </defs>
  <path d="M18.233,0.009 L1.767,0.009 C0.797,0.009 0.008,0.797 0.008,1.766 L0.008,18.232 C0.008,19.204 0.796,19.991 1.767,19.991 L18.233,19.991 C19.205,19.991 19.992,19.204 19.992,18.232 L19.992,1.766 C19.992,0.797 19.205,0.009 18.233,0.009 ZM16.068,15.715 C16.068,16.267 15.558,16.719 14.927,16.719 L12.931,16.719 L12.931,11.052 L11.955,11.052 L11.955,16.719 L10.490,16.719 L10.490,11.052 L9.513,11.052 L9.513,16.719 L7.966,16.719 L7.966,11.052 L6.989,11.052 L6.989,16.719 L5.071,16.719 C4.441,16.719 3.930,16.267 3.930,15.715 L3.930,7.044 C3.930,6.490 4.440,6.041 5.071,6.041 L6.472,6.041 L6.472,3.852 C6.472,3.536 6.763,3.280 7.122,3.280 L12.748,3.280 C13.105,3.280 13.397,3.536 13.397,3.852 L13.397,6.041 L14.927,6.041 C15.558,6.041 16.068,6.490 16.068,7.044 L16.068,15.715 Z" class="cls-1"/>
</svg>
