<?xml version="1.0" encoding="utf-8"?>
<!-- Generator: Adobe Illustrator 19.2.1, SVG Export Plug-In . SVG Version: 6.00 Build 0)  -->
<svg version="1.1" id="Слой_1" xmlns="http://www.w3.org/2000/svg" xmlns:xlink="http://www.w3.org/1999/xlink" x="0px" y="0px"
	 viewBox="0 0 53.9 49.5" style="enable-background:new 0 0 53.9 49.5;" xml:space="preserve">
<style type="text/css">
	.st0{fill:#587EBE;}
	.st1{fill:#98C8D4;}
</style>
<path class="st0" d="M13.2,19.9H5.9c-3.3,0-5.9,2.7-5.9,5.9v17.7c0,3.3,2.7,5.9,5.9,5.9h7.3c3.3,0,5.9-2.7,5.9-5.9V25.8
	C19.2,22.5,16.5,19.9,13.2,19.9z M3.9,25.8c0-1.1,0.9-2,2-2h7.3c1.1,0,2,0.9,2,2v17.7c0,1.1-0.9,2-2,2H5.9c-1.1,0-2-0.9-2-2V25.8z"
	/>
<path class="st1" d="M12.6,41.4c0,1.4-1.1,2.5-2.5,2.5H9.4c-1.4,0-2.5-1.1-2.5-2.5v-0.7c0-1.4,1.1-2.5,2.5-2.5h0.7
	c1.4,0,2.5,1.1,2.5,2.5V41.4z M12.6,41.4"/>
<path class="st0" d="M52.5,20.2c-1.1-1.5-2.8-2.4-4.6-2.7c-0.3,0-0.6,0-0.9-0.1c-0.2,0-0.4,0-0.6,0l-1.2,0c-0.7,0-1.5,0-2.5,0
	c-1.5,0-3.1-0.1-4.7-0.3c0-0.2,0-0.5,0-0.5c0.2-0.7,0.5-1.5,1-2.5c0.6-1.4,1.3-2.8,1.4-4.4c0.5-5-2.1-7.4-4.4-8.9
	c-0.9-0.6-1.9-0.9-3-0.9C31.4,0,30,0.8,30,0.8c-0.6,0.4-1,1.1-0.9,1.8c0.1,0.8,0.1,3.4-0.7,5.3c-0.5,1.2-2.1,3.6-3.3,5.6
	c-2,3.1-3.4,5.4-3.9,6.8l-0.3,0.7c-0.1,0.2-0.1,0.5-0.1,0.7l0,0.1l0,20.3c0,0.1-0.1,0.2,0,0.4c1.5,6.3,6,6.8,10.1,6.8
	c0.9,0,1.9,0,2.9-0.1l0.2,0c1.1,0,2.2-0.1,3.4-0.1c1,0,1.9,0,2.7,0l0.2,0c0.6,0,1.1,0,1.6,0c1.6,0,2.9-0.1,3.8-0.6
	c1.7-0.6,2.9-2,3.1-3.8c0.1-0.8,0-1.5-0.2-2.1c1-0.9,1.7-2.1,1.8-3.4c0.1-0.9,0-1.9-0.3-2.7c1-1,1.7-2.3,1.9-3.7
	c0.2-1.2,0-2.4-0.6-3.5c1.3-1.1,2.1-2.6,2.3-4.3C54.1,23.5,53.6,21.7,52.5,20.2z M47.4,21.5c0.8,0.1,1.5,0.5,2,1.1
	c0.5,0.6,0.7,1.4,0.6,2.2c-0.1,0.8-0.6,1.6-1.3,2.1c-1.2,0.8-1.7,3-0.9,4.2c0.3,0.5,0.4,1,0.3,1.5c-0.1,0.6-0.4,1.1-0.9,1.5
	c-1.3,1-1.2,3.1-0.8,4c0.1,0.2,0.2,0.5,0.1,0.8c-0.1,0.5-0.3,0.9-0.8,1.1c-0.6,0.3-1,0.9-1.2,1.6c-0.2,0.8-0.1,1.7,0.3,2.3
	c0.1,0.1,0.1,0.2,0.1,0.4c0,0.3-0.3,0.5-0.5,0.6c-0.1,0-0.3,0.1-0.4,0.2c-0.1,0.1-0.5,0.2-2.1,0.2c-0.5,0-1,0-1.7,0
	c-0.8,0-1.7,0-2.8,0c-1.3,0-2.5,0-3.7,0.1l-0.2,0c-0.9,0-1.7,0.1-2.6,0.1c-3.9,0-5.5-0.5-6.2-3.5l0-19.6l0.1-0.4
	c0.1-0.1,0-0.2,0-0.3c0.4-1.1,2.1-3.8,3.5-5.9c1.6-2.5,3.1-4.8,3.7-6.3c0.7-1.9,1-4,1-5.5c0.2,0,0.6,0,0.9,0.2c1.6,1,3,2.2,2.7,5.2
	c-0.1,0.9-0.6,2-1.1,3.2c-0.4,0.9-0.9,2-1.2,3.1c-0.2,0.6-0.2,1.2-0.2,1.9l0,0.1c0,0.4,0,0.8,0,1.1c-0.1,0.5,0.1,1.1,0.4,1.5
	c0.3,0.4,0.8,0.7,1.4,0.7l0.5,0c2,0.2,4.4,0.4,6.4,0.4c1,0,1.8,0,2.6,0c0.7,0,1.3,0,1.5,0c0,0,0.2,0,0.2,0
	C47.2,21.4,47.3,21.4,47.4,21.5z M47,21.1L47,21.1L47,21.1L47,21.1z"/>
</svg>
