<svg xmlns="http://www.w3.org/2000/svg" xmlns:xlink="http://www.w3.org/1999/xlink" preserveAspectRatio="xMidYMid" width="20" height="20" viewBox="0 0 20 20">
  <defs>
    <style>
      .cls-1 {
        fill: #2b3bda;
        fill-rule: evenodd;
      }
    </style>
  </defs>
  <path d="M17.500,16.000 L16.250,16.000 L16.250,13.333 L16.250,12.000 L3.750,12.000 L3.750,13.333 L3.750,16.000 L2.500,16.000 C1.250,16.000 -0.000,14.667 -0.000,13.333 L-0.000,6.666 C-0.000,5.333 1.250,4.000 2.500,4.000 L3.750,4.000 L3.750,6.666 L3.750,8.000 L16.250,8.000 L16.250,6.666 L16.250,4.000 L17.500,4.000 C18.750,4.000 20.000,5.333 20.000,6.666 L20.000,13.333 C20.000,14.667 18.750,16.000 17.500,16.000 ZM5.000,4.000 L5.000,-0.000 L15.000,-0.000 L15.000,4.000 L15.000,6.666 L5.000,6.666 L5.000,4.000 ZM15.000,16.000 L15.000,20.000 L5.000,20.000 L5.000,16.000 L5.000,13.333 L15.000,13.333 L15.000,16.000 ZM13.750,14.667 L6.250,14.667 L6.250,16.000 L13.750,16.000 L13.750,14.667 ZM13.750,17.333 L6.250,17.333 L6.250,18.667 L13.750,18.667 L13.750,17.333 Z" class="cls-1"/>
</svg>
