<svg xmlns="http://www.w3.org/2000/svg" xmlns:xlink="http://www.w3.org/1999/xlink" preserveAspectRatio="xMidYMid" width="19" height="20" viewBox="0 0 19 20">
  <defs>
    <style>
      .cls-1 {
        fill: #c7c7c7;
        fill-rule: evenodd;
      }
    </style>
  </defs>
  <path d="M16.641,20.000 L2.359,20.000 C1.058,20.000 -0.000,18.962 -0.000,17.687 L-0.000,9.334 L19.000,9.334 L19.000,17.687 C19.000,18.962 17.942,20.000 16.641,20.000 ZM4.459,16.198 L3.199,16.198 C2.824,16.198 2.520,16.496 2.520,16.863 C2.520,17.231 2.824,17.529 3.199,17.529 L4.459,17.529 C4.834,17.529 5.138,17.231 5.138,16.863 C5.138,16.496 4.834,16.198 4.459,16.198 ZM8.240,16.198 L6.980,16.198 C6.605,16.198 6.301,16.496 6.301,16.863 C6.301,17.231 6.605,17.529 6.980,17.529 L8.240,17.529 C8.615,17.529 8.919,17.231 8.919,16.863 C8.919,16.496 8.615,16.198 8.240,16.198 ZM12.020,16.198 L10.760,16.198 C10.385,16.198 10.081,16.496 10.081,16.863 C10.081,17.231 10.385,17.529 10.760,17.529 L12.020,17.529 C12.395,17.529 12.699,17.231 12.699,16.863 C12.699,16.496 12.395,16.198 12.020,16.198 ZM13.949,8.402 C13.894,8.306 13.862,8.196 13.862,8.078 C13.862,7.710 14.166,7.412 14.541,7.412 L15.122,7.412 L15.122,0.666 C15.122,0.298 15.426,-0.000 15.801,-0.000 C16.176,-0.000 16.480,0.298 16.480,0.666 L16.480,7.412 L17.061,7.412 C17.436,7.412 17.740,7.710 17.740,8.078 C17.740,8.196 17.708,8.306 17.653,8.402 L13.949,8.402 ZM6.301,8.078 C6.301,7.710 6.605,7.412 6.980,7.412 C7.355,7.412 7.659,7.710 7.659,8.078 L7.659,8.402 L6.301,8.402 L6.301,8.078 ZM10.879,4.001 C11.105,4.222 11.105,4.580 10.879,4.801 C10.767,4.912 10.619,4.967 10.471,4.967 C10.324,4.967 10.176,4.912 10.063,4.801 C9.913,4.653 9.713,4.572 9.500,4.572 C9.287,4.572 9.087,4.653 8.936,4.801 C8.711,5.022 8.346,5.022 8.120,4.801 C7.895,4.580 7.895,4.222 8.121,4.001 C8.489,3.640 8.979,3.441 9.500,3.441 C10.021,3.441 10.511,3.640 10.879,4.001 ZM7.356,3.868 C7.208,3.868 7.060,3.813 6.948,3.703 C6.722,3.482 6.722,3.124 6.948,2.903 C8.355,1.523 10.645,1.523 12.052,2.903 C12.277,3.124 12.277,3.482 12.052,3.703 C11.827,3.924 11.461,3.924 11.236,3.703 C10.279,2.764 8.721,2.764 7.764,3.703 C7.651,3.813 7.503,3.868 7.356,3.868 ZM12.827,2.507 C12.679,2.507 12.531,2.452 12.418,2.341 C11.639,1.577 10.603,1.156 9.500,1.156 C8.397,1.156 7.361,1.577 6.581,2.341 C6.356,2.562 5.990,2.562 5.765,2.341 C5.540,2.121 5.540,1.762 5.765,1.541 C6.763,0.563 8.089,0.025 9.500,0.025 C10.911,0.025 12.237,0.563 13.235,1.541 C13.460,1.762 13.460,2.121 13.234,2.341 C13.122,2.452 12.974,2.507 12.827,2.507 ZM3.780,8.078 C3.780,7.710 4.084,7.412 4.459,7.412 C4.834,7.412 5.138,7.710 5.138,8.078 L5.138,8.402 L3.780,8.402 L3.780,8.078 Z" class="cls-1"/>
</svg>
