<svg xmlns="http://www.w3.org/2000/svg" xmlns:xlink="http://www.w3.org/1999/xlink" preserveAspectRatio="xMidYMid" width="35" height="34.969" viewBox="0 0 35 34.969">
  <defs>
    <style>
      .cls-1 {
        fill: #fff;
        fill-rule: evenodd;
      }
    </style>
  </defs>
  <path d="M30.655,34.980 L4.355,34.980 C1.960,34.980 0.011,33.070 0.011,30.722 L0.011,17.181 L35.000,17.181 L35.000,30.722 C35.000,33.070 33.051,34.980 30.655,34.980 ZM8.223,27.979 L5.902,27.979 C5.212,27.979 4.652,28.528 4.652,29.205 C4.652,29.882 5.212,30.431 5.902,30.431 L8.223,30.431 C8.913,30.431 9.473,29.882 9.473,29.205 C9.473,28.528 8.913,27.979 8.223,27.979 ZM15.185,27.979 L12.864,27.979 C12.174,27.979 11.614,28.528 11.614,29.205 C11.614,29.882 12.174,30.431 12.864,30.431 L15.185,30.431 C15.875,30.431 16.435,29.882 16.435,29.205 C16.435,28.528 15.875,27.979 15.185,27.979 ZM22.146,27.979 L19.826,27.979 C19.135,27.979 18.575,28.528 18.575,29.205 C18.575,29.882 19.135,30.431 19.826,30.431 L22.146,30.431 C22.837,30.431 23.397,29.882 23.397,29.205 C23.397,28.528 22.837,27.979 22.146,27.979 ZM25.698,15.465 C25.596,15.288 25.537,15.085 25.537,14.867 C25.537,14.191 26.097,13.642 26.788,13.642 L27.858,13.642 L27.858,1.217 C27.858,0.541 28.418,-0.009 29.108,-0.009 C29.799,-0.009 30.358,0.541 30.358,1.217 L30.358,13.642 L31.429,13.642 C32.119,13.642 32.679,14.191 32.679,14.867 C32.679,15.085 32.620,15.288 32.519,15.465 L25.698,15.465 ZM19.525,10.022 C19.986,10.474 19.986,11.208 19.524,11.660 C19.293,11.887 18.991,12.000 18.688,12.000 C18.386,12.000 18.084,11.887 17.853,11.660 C17.545,11.358 17.136,11.192 16.699,11.192 C16.263,11.192 15.854,11.358 15.546,11.660 C15.084,12.112 14.336,12.112 13.874,11.660 C13.413,11.208 13.413,10.474 13.875,10.021 C14.629,9.282 15.632,8.875 16.699,8.875 C17.767,8.875 18.770,9.282 19.525,10.022 ZM12.308,8.485 C12.006,8.485 11.703,8.371 11.473,8.145 C11.011,7.693 11.011,6.959 11.473,6.507 C14.355,3.681 19.044,3.682 21.926,6.507 C22.388,6.959 22.388,7.693 21.926,8.145 C21.465,8.598 20.716,8.598 20.255,8.145 C18.294,6.224 15.104,6.223 13.144,8.145 C12.913,8.371 12.610,8.485 12.308,8.485 ZM23.512,5.121 C23.210,5.121 22.907,5.008 22.676,4.781 C21.080,3.216 18.957,2.354 16.699,2.354 C14.442,2.354 12.319,3.216 10.722,4.781 C10.260,5.234 9.512,5.234 9.051,4.782 C8.589,4.329 8.589,3.595 9.051,3.143 C11.094,1.140 13.810,0.037 16.699,0.037 C19.589,0.037 22.305,1.140 24.348,3.143 C24.809,3.595 24.809,4.329 24.347,4.782 C24.117,5.008 23.814,5.121 23.512,5.121 ZM6.089,14.867 C6.089,14.191 6.649,13.642 7.340,13.642 C8.030,13.642 8.590,14.191 8.590,14.867 L8.590,15.465 L6.089,15.465 L6.089,14.867 ZM1.448,14.867 C1.448,14.191 2.008,13.642 2.698,13.642 C3.389,13.642 3.948,14.191 3.948,14.867 L3.948,15.465 L1.448,15.465 L1.448,14.867 Z" class="cls-1"/>
</svg>
