<svg xmlns="http://www.w3.org/2000/svg" xmlns:xlink="http://www.w3.org/1999/xlink" preserveAspectRatio="xMidYMid" width="36" height="36" viewBox="0 0 36 36">
  <defs>
    <style>
      .cls-1 {
        fill: #2b81da;
        fill-rule: evenodd;
      }
    </style>
  </defs>
  <path d="M35.157,15.581 C35.069,15.494 34.987,15.413 34.891,15.339 C33.749,8.043 27.991,2.281 20.696,1.139 C20.642,1.069 20.588,1.001 20.527,0.937 C19.972,0.341 19.185,-0.000 18.362,-0.000 L17.720,-0.000 C16.896,-0.000 16.106,0.341 15.551,0.937 C15.491,1.001 15.434,1.069 15.380,1.139 C8.085,2.281 2.322,8.043 1.180,15.338 C1.084,15.413 0.971,15.494 0.884,15.581 C0.327,16.138 0.000,16.882 0.000,17.679 L0.000,18.321 C0.000,19.117 0.327,19.862 0.883,20.418 C0.971,20.506 1.074,20.586 1.170,20.661 C2.312,27.956 8.080,33.718 15.375,34.861 C15.429,34.930 15.488,34.998 15.549,35.063 C16.104,35.658 16.896,36.000 17.719,36.000 L18.361,36.000 C19.185,36.000 19.975,35.658 20.530,35.063 C20.590,34.998 20.647,34.930 20.701,34.861 C27.996,33.718 33.759,27.956 34.901,20.661 C34.997,20.586 35.069,20.506 35.157,20.418 C35.714,19.862 36.000,19.117 36.000,18.321 L36.000,17.679 C36.000,16.882 35.714,16.138 35.157,15.581 ZM34.176,17.679 L34.176,18.321 C34.176,18.961 33.696,19.455 33.068,19.455 C33.039,19.455 33.021,19.454 32.993,19.452 L30.409,19.271 C29.742,19.224 29.198,18.652 29.198,18.000 C29.198,17.348 29.745,16.776 30.413,16.729 L33.002,16.548 C33.031,16.546 33.039,16.545 33.067,16.545 C33.695,16.545 34.176,17.038 34.176,17.679 ZM19.504,3.037 L19.317,5.626 C19.270,6.294 18.695,6.840 18.043,6.840 C17.391,6.840 16.818,6.294 16.771,5.626 L16.589,3.037 C16.542,2.370 17.050,1.824 17.719,1.824 L18.383,1.824 C19.052,1.824 19.550,2.370 19.504,3.037 ZM6.880,18.000 C6.880,18.652 6.334,19.224 5.667,19.271 L3.078,19.452 C3.050,19.454 3.001,19.455 2.973,19.455 C2.345,19.455 1.824,18.961 1.824,18.321 L1.824,17.679 C1.824,17.038 2.345,16.545 2.973,16.545 C3.001,16.545 3.039,16.546 3.068,16.547 L5.662,16.729 C6.329,16.776 6.880,17.348 6.880,18.000 ZM17.719,34.175 C17.050,34.175 16.541,33.630 16.588,32.962 L16.770,30.373 C16.816,29.706 17.388,29.160 18.040,29.160 C18.692,29.160 19.264,29.706 19.311,30.373 L19.493,32.962 C19.539,33.629 19.030,34.175 18.361,34.175 L17.719,34.175 ZM18.041,25.297 C14.017,25.297 10.743,22.023 10.743,18.000 C10.743,13.976 14.017,10.702 18.041,10.702 C22.064,10.702 25.338,13.976 25.338,18.000 C25.338,22.023 22.064,25.297 18.041,25.297 Z" class="cls-1"/>
</svg>
