<svg xmlns="http://www.w3.org/2000/svg" xmlns:xlink="http://www.w3.org/1999/xlink" preserveAspectRatio="xMidYMid" width="30" height="34" viewBox="0 0 30 34">
  <defs>
    <style>
      .cls-1 {
        fill: #fff;
        fill-rule: evenodd;
      }
    </style>
  </defs>
  <path d="M24.375,22.667 C23.087,22.667 21.903,23.108 20.954,23.842 L11.169,17.927 C11.218,17.625 11.250,17.316 11.250,17.000 C11.250,16.683 11.218,16.375 11.169,16.072 L20.954,10.157 C21.903,10.892 23.087,11.333 24.375,11.333 C27.481,11.333 30.000,8.796 30.000,5.666 C30.000,2.537 27.481,-0.000 24.375,-0.000 C21.269,-0.000 18.750,2.537 18.750,5.666 C18.750,5.983 18.782,6.291 18.832,6.594 L9.046,12.509 C8.098,11.774 6.914,11.333 5.625,11.333 C2.519,11.333 -0.000,13.870 -0.000,17.000 C-0.000,20.129 2.519,22.667 5.625,22.667 C6.914,22.667 8.098,22.225 9.046,21.490 L18.832,27.405 C18.782,27.708 18.750,28.016 18.750,28.333 C18.750,31.462 21.269,34.000 24.375,34.000 C27.481,34.000 30.000,31.462 30.000,28.333 C30.000,25.204 27.481,22.667 24.375,22.667 Z" class="cls-1"/>
</svg>
