<svg xmlns="http://www.w3.org/2000/svg" xmlns:xlink="http://www.w3.org/1999/xlink" preserveAspectRatio="xMidYMid" width="25" height="25" viewBox="0 0 25 25">
  <defs>
    <style>
      .cls-1 {
        fill: #c7c7c7;
        fill-rule: evenodd;
      }
    </style>
  </defs>
  <path d="M24.921,11.113 C24.881,10.762 24.471,10.497 24.117,10.497 C22.972,10.497 21.955,9.825 21.529,8.784 C21.094,7.719 21.374,6.477 22.228,5.694 C22.497,5.448 22.529,5.037 22.304,4.751 C21.718,4.007 21.051,3.334 20.324,2.751 C20.039,2.523 19.621,2.555 19.374,2.828 C18.629,3.653 17.291,3.960 16.256,3.528 C15.181,3.076 14.501,1.985 14.568,0.815 C14.590,0.447 14.321,0.127 13.955,0.084 C13.021,-0.024 12.079,-0.027 11.142,0.077 C10.780,0.117 10.512,0.429 10.524,0.792 C10.564,1.951 9.877,3.023 8.812,3.459 C7.790,3.876 6.461,3.572 5.718,2.754 C5.472,2.485 5.061,2.452 4.775,2.675 C4.026,3.263 3.344,3.936 2.753,4.675 C2.522,4.962 2.556,5.377 2.827,5.624 C3.697,6.412 3.978,7.665 3.526,8.743 C3.095,9.771 2.028,10.433 0.806,10.433 C0.410,10.420 0.128,10.686 0.084,11.047 C-0.026,11.985 -0.027,12.942 0.079,13.889 C0.118,14.241 0.540,14.504 0.899,14.504 C1.987,14.476 3.032,15.149 3.471,16.216 C3.907,17.282 3.626,18.523 2.771,19.307 C2.504,19.553 2.470,19.964 2.696,20.249 C3.276,20.989 3.943,21.662 4.673,22.249 C4.959,22.480 5.376,22.448 5.624,22.174 C6.372,21.347 7.710,21.041 8.740,21.473 C9.819,21.925 10.498,23.015 10.432,24.186 C10.410,24.554 10.679,24.874 11.045,24.916 C11.523,24.972 12.003,25.000 12.485,25.000 C12.942,25.000 13.400,24.975 13.857,24.924 C14.219,24.884 14.488,24.571 14.475,24.208 C14.434,23.050 15.122,21.978 16.186,21.543 C17.215,21.123 18.538,21.430 19.282,22.247 C19.529,22.515 19.937,22.548 20.225,22.326 C20.973,21.739 21.652,21.067 22.247,20.326 C22.478,20.040 22.445,19.623 22.172,19.376 C21.302,18.589 21.020,17.335 21.472,16.259 C21.897,15.245 22.924,14.564 24.029,14.564 L24.184,14.568 C24.542,14.597 24.872,14.321 24.915,13.955 C25.026,13.015 25.027,12.059 24.921,11.113 ZM12.500,19.706 C8.520,19.706 5.294,16.480 5.294,12.501 C5.294,8.521 8.520,5.295 12.500,5.295 C16.480,5.295 19.706,8.521 19.706,12.501 C19.706,13.851 19.333,15.115 18.687,16.195 L15.531,13.040 C15.760,12.501 15.880,11.917 15.880,11.315 C15.880,10.135 15.421,9.026 14.586,8.191 C13.752,7.357 12.643,6.897 11.463,6.897 C11.069,6.897 10.677,6.950 10.298,7.053 C10.132,7.098 9.996,7.235 9.952,7.402 C9.907,7.572 9.958,7.746 10.091,7.879 C10.091,7.879 11.648,9.449 12.170,9.970 C12.224,10.025 12.224,10.155 12.216,10.202 L12.212,10.236 C12.159,10.809 12.058,11.497 11.974,11.761 C11.963,11.772 11.952,11.782 11.941,11.793 C11.929,11.805 11.918,11.817 11.906,11.829 C11.638,11.915 10.940,12.017 10.358,12.069 L10.358,12.066 L10.332,12.073 C10.327,12.073 10.319,12.074 10.307,12.074 C10.244,12.074 10.152,12.056 10.068,11.972 C9.525,11.430 8.028,9.944 8.028,9.944 C7.894,9.810 7.756,9.782 7.665,9.782 C7.451,9.782 7.259,9.937 7.199,10.158 C6.787,11.683 7.223,13.323 8.339,14.438 C9.173,15.273 10.283,15.732 11.463,15.732 C12.065,15.732 12.649,15.612 13.188,15.383 L16.377,18.573 C15.258,19.289 13.928,19.706 12.500,19.706 Z" class="cls-1"/>
</svg>
